{
	"asset":{
		"generator":"Khronos glTF Blender I/O v3.5.30",
		"version":"2.0"
	},
	"scene":0,
	"scenes":[
		{
			"name":"Scene",
			"nodes":[
				0,
				1,
				2,
				3,
				4,
				5,
				6,
				7,
				8,
				9,
				10,
				11,
				12
			]
		}
	],
	"nodes":[
		{
			"mesh":0,
			"name":"Body",
			"scale":[
				0.09531053900718689,
				0.09531053900718689,
				0.09531053900718689
			],
			"translation":[
				0.0032500382512807846,
				0.2820609211921692,
				0
			]
		},
		{
			"mesh":1,
			"name":"R.arm",
			"scale":[
				0.05700138211250305,
				0.09973383694887161,
				0.06297671049833298
			],
			"translation":[
				-0.06064777076244354,
				0.10023711621761322,
				0
			]
		},
		{
			"mesh":2,
			"name":"L.arm",
			"rotation":[
				0,
				1,
				0,
				1.6292068494294654e-07
			],
			"scale":[
				0.05700138211250305,
				0.09973383694887161,
				0.06297671049833298
			],
			"translation":[
				0.061476752161979675,
				0.10023711621761322,
				0
			]
		},
		{
			"mesh":3,
			"name":"R.Hand",
			"rotation":[
				0,
				0,
				-0.6170195937156677,
				0.7869478464126587
			],
			"scale":[
				0.024509096518158913,
				0.06234084814786911,
				0.025523321703076363
			],
			"translation":[
				-0.1334657073020935,
				0.3361605405807495,
				0
			]
		},
		{
			"mesh":4,
			"name":"L.hand",
			"rotation":[
				0.6170195937156677,
				-0.7869477868080139,
				0,
				1.2821008965602232e-07
			],
			"scale":[
				0.024509094655513763,
				0.06234084814786911,
				0.025523317977786064
			],
			"translation":[
				0.13475508987903595,
				0.3356221616268158,
				0
			]
		},
		{
			"mesh":5,
			"name":"Head",
			"scale":[
				0.12329224497079849,
				0.12329224497079849,
				0.12329224497079849
			],
			"translation":[
				0.0014903375413268805,
				0.44710126519203186,
				0
			]
		},
		{
			"mesh":6,
			"name":"R.ear",
			"rotation":[
				0,
				0,
				0.15243057906627655,
				0.9883142709732056
			],
			"scale":[
				0.06915102899074554,
				0.15488743782043457,
				0.06909263134002686
			],
			"translation":[
				-0.09967881441116333,
				0.6803724765777588,
				0
			]
		},
		{
			"mesh":7,
			"name":"L.ear",
			"rotation":[
				0.014834209345281124,
				-0.12078060209751129,
				-0.1209976077079773,
				0.9851657748222351
			],
			"scale":[
				0.06733211874961853,
				0.15081337094306946,
				0.06727524846792221
			],
			"translation":[
				0.09996475279331207,
				0.6816834211349487,
				0
			]
		},
		{
			"mesh":8,
			"name":"R.eye",
			"rotation":[
				-0.1042705774307251,
				-0.11842459440231323,
				0.04473309591412544,
				0.9864594340324402
			],
			"scale":[
				0.030091144144535065,
				0.031097956001758575,
				0.009041087701916695
			],
			"translation":[
				-0.03254752233624458,
				0.46226418018341064,
				0.1047823503613472
			]
		},
		{
			"mesh":9,
			"name":"Mouth",
			"rotation":[
				0.1913307160139084,
				0,
				0,
				0.981525719165802
			],
			"scale":[
				0.01858111470937729,
				0.01858111470937729,
				0.0036472806241363287
			],
			"translation":[
				0.0021662870422005653,
				0.40702125430107117,
				0.1090085357427597
			]
		},
		{
			"mesh":10,
			"name":"R.eyebrow",
			"rotation":[
				-0.02317681536078453,
				-0.1037420704960823,
				0.21679793298244476,
				0.9704118967056274
			],
			"scale":[
				-0.02365071140229702,
				-0.003752034856006503,
				-0.003752034856006503
			],
			"translation":[
				-0.05690941959619522,
				0.4976647198200226,
				0.08552463352680206
			]
		},
		{
			"mesh":11,
			"name":"L.eyebrow",
			"rotation":[
				-0.2162209004163742,
				-0.9678290486335754,
				0.028053946793079376,
				0.1255725771188736
			],
			"scale":[
				-0.017859596759080887,
				-0.002833310980349779,
				-0.00283331167884171
			],
			"translation":[
				0.059396736323833466,
				0.497905433177948,
				0.08552463352680206
			]
		},
		{
			"mesh":12,
			"name":"L.eye",
			"rotation":[
				0.11354908347129822,
				0.07877006381750107,
				0.875087320804596,
				0.46381494402885437
			],
			"scale":[
				-0.014377386309206486,
				-0.0022808806970715523,
				-0.002280880929902196
			],
			"translation":[
				0.04408831149339676,
				0.4608055353164673,
				0.10823144018650055
			]
		}
	],
	"materials":[
		{
			"doubleSided":true,
			"name":"Material.005",
			"pbrMetallicRoughness":{
				"metallicFactor":0
			}
		},
		{
			"doubleSided":true,
			"name":"Material.003",
			"pbrMetallicRoughness":{
				"baseColorTexture":{
					"index":0
				},
				"metallicFactor":0
			}
		},
		{
			"doubleSided":true,
			"name":"Material.001",
			"pbrMetallicRoughness":{
				"baseColorFactor":[
					0,
					0,
					0,
					1
				],
				"metallicFactor":0,
				"roughnessFactor":0.2971014380455017
			}
		},
		{
			"doubleSided":true,
			"name":"Material.002",
			"pbrMetallicRoughness":{
				"baseColorFactor":[
					0,
					0,
					0,
					1
				],
				"metallicFactor":0,
				"roughnessFactor":0.760869562625885
			}
		}
	],
	"meshes":[
		{
			"name":"Cube.001",
			"primitives":[
				{
					"attributes":{
						"POSITION":0,
						"TEXCOORD_0":1,
						"NORMAL":2
					},
					"indices":3,
					"material":0
				}
			]
		},
		{
			"name":"Cube.002",
			"primitives":[
				{
					"attributes":{
						"POSITION":4,
						"TEXCOORD_0":5,
						"NORMAL":6
					},
					"indices":7,
					"material":0
				}
			]
		},
		{
			"name":"Cube.003",
			"primitives":[
				{
					"attributes":{
						"POSITION":8,
						"TEXCOORD_0":9,
						"NORMAL":10
					},
					"indices":11,
					"material":0
				}
			]
		},
		{
			"name":"Cube.004",
			"primitives":[
				{
					"attributes":{
						"POSITION":12,
						"TEXCOORD_0":13,
						"NORMAL":14
					},
					"indices":11,
					"material":0
				}
			]
		},
		{
			"name":"Cube.005",
			"primitives":[
				{
					"attributes":{
						"POSITION":15,
						"TEXCOORD_0":16,
						"NORMAL":17
					},
					"indices":11,
					"material":0
				}
			]
		},
		{
			"name":"Cube.006",
			"primitives":[
				{
					"attributes":{
						"POSITION":18,
						"TEXCOORD_0":19,
						"NORMAL":20
					},
					"indices":21,
					"material":0
				}
			]
		},
		{
			"name":"Cube.007",
			"primitives":[
				{
					"attributes":{
						"POSITION":22,
						"TEXCOORD_0":23,
						"NORMAL":24
					},
					"indices":25,
					"material":1
				}
			]
		},
		{
			"name":"Cube.008",
			"primitives":[
				{
					"attributes":{
						"POSITION":26,
						"TEXCOORD_0":27,
						"NORMAL":28
					},
					"indices":29,
					"material":1
				}
			]
		},
		{
			"name":"Sphere.001",
			"primitives":[
				{
					"attributes":{
						"POSITION":30,
						"TEXCOORD_0":31,
						"NORMAL":32
					},
					"indices":33,
					"material":2
				}
			]
		},
		{
			"name":"Cube.009",
			"primitives":[
				{
					"attributes":{
						"POSITION":34,
						"TEXCOORD_0":35,
						"NORMAL":36
					},
					"indices":37,
					"material":3
				}
			]
		},
		{
			"name":"Cube.010",
			"primitives":[
				{
					"attributes":{
						"POSITION":38,
						"TEXCOORD_0":39,
						"NORMAL":40
					},
					"indices":41,
					"material":3
				}
			]
		},
		{
			"name":"Cube.011",
			"primitives":[
				{
					"attributes":{
						"POSITION":42,
						"TEXCOORD_0":43,
						"NORMAL":44
					},
					"indices":41,
					"material":3
				}
			]
		},
		{
			"name":"Cube.013",
			"primitives":[
				{
					"attributes":{
						"POSITION":45,
						"TEXCOORD_0":46,
						"NORMAL":47
					},
					"indices":48,
					"material":3
				}
			]
		}
	],
	"textures":[
		{
			"sampler":0,
			"source":0
		}
	],
	"images":[
		{
			"bufferView":26,
			"mimeType":"image/png",
			"name":"Untitled"
		}
	],
	"accessors":[
		{
			"bufferView":0,
			"componentType":5126,
			"count":285,
			"max":[
				0.9784066677093506,
				0.8898695707321167,
				0.9632271528244019
			],
			"min":[
				-0.9810702800750732,
				-1.0239837169647217,
				-0.9791824817657471
			],
			"type":"VEC3"
		},
		{
			"bufferView":1,
			"componentType":5126,
			"count":285,
			"type":"VEC2"
		},
		{
			"bufferView":2,
			"componentType":5126,
			"count":285,
			"type":"VEC3"
		},
		{
			"bufferView":3,
			"componentType":5123,
			"count":1344,
			"type":"SCALAR"
		},
		{
			"bufferView":4,
			"componentType":5126,
			"count":282,
			"max":[
				1.0084680318832397,
				1.0683354139328003,
				1.0486587285995483
			],
			"min":[
				-1.1498441696166992,
				-1.0528920888900757,
				-0.8517963886260986
			],
			"type":"VEC3"
		},
		{
			"bufferView":5,
			"componentType":5126,
			"count":282,
			"type":"VEC2"
		},
		{
			"bufferView":6,
			"componentType":5126,
			"count":282,
			"type":"VEC3"
		},
		{
			"bufferView":7,
			"componentType":5123,
			"count":1344,
			"type":"SCALAR"
		},
		{
			"bufferView":8,
			"componentType":5126,
			"count":282,
			"max":[
				1.0502538681030273,
				1.0703506469726562,
				1.0486587285995483
			],
			"min":[
				-1.18877112865448,
				-1.0552021265029907,
				-0.8517963886260986
			],
			"type":"VEC3"
		},
		{
			"bufferView":9,
			"componentType":5126,
			"count":282,
			"type":"VEC2"
		},
		{
			"bufferView":10,
			"componentType":5126,
			"count":282,
			"type":"VEC3"
		},
		{
			"bufferView":11,
			"componentType":5123,
			"count":1344,
			"type":"SCALAR"
		},
		{
			"bufferView":12,
			"componentType":5126,
			"count":282,
			"max":[
				1.0657029151916504,
				1.2249951362609863,
				1.0486587285995483
			],
			"min":[
				-1.115952491760254,
				-1.0773591995239258,
				-0.8517963886260986
			],
			"type":"VEC3"
		},
		{
			"bufferView":13,
			"componentType":5126,
			"count":282,
			"type":"VEC2"
		},
		{
			"bufferView":14,
			"componentType":5126,
			"count":282,
			"type":"VEC3"
		},
		{
			"bufferView":15,
			"componentType":5126,
			"count":282,
			"max":[
				1.0657029151916504,
				1.2249951362609863,
				1.0486587285995483
			],
			"min":[
				-1.115952491760254,
				-1.0773591995239258,
				-0.8517963886260986
			],
			"type":"VEC3"
		},
		{
			"bufferView":16,
			"componentType":5126,
			"count":282,
			"type":"VEC2"
		},
		{
			"bufferView":17,
			"componentType":5126,
			"count":282,
			"type":"VEC3"
		},
		{
			"bufferView":18,
			"componentType":5126,
			"count":125,
			"max":[
				0.979600191116333,
				0.8171663284301758,
				0.9704880714416504
			],
			"min":[
				-0.9796003699302673,
				-0.841455340385437,
				-0.9238526821136475
			],
			"type":"VEC3"
		},
		{
			"bufferView":19,
			"componentType":5126,
			"count":125,
			"type":"VEC2"
		},
		{
			"bufferView":20,
			"componentType":5126,
			"count":125,
			"type":"VEC3"
		},
		{
			"bufferView":21,
			"componentType":5123,
			"count":576,
			"type":"SCALAR"
		},
		{
			"bufferView":22,
			"componentType":5126,
			"count":472,
			"max":[
				0.9846560955047607,
				0.9976450800895691,
				0.6654506325721741
			],
			"min":[
				-0.9864567518234253,
				-1.2028863430023193,
				-0.8212280869483948
			],
			"type":"VEC3"
		},
		{
			"bufferView":23,
			"componentType":5126,
			"count":472,
			"type":"VEC2"
		},
		{
			"bufferView":24,
			"componentType":5126,
			"count":472,
			"type":"VEC3"
		},
		{
			"bufferView":25,
			"componentType":5123,
			"count":2112,
			"type":"SCALAR"
		},
		{
			"bufferView":27,
			"componentType":5126,
			"count":436,
			"max":[
				0.9846560955047607,
				0.9976450800895691,
				0.7087641358375549
			],
			"min":[
				-0.9864567518234253,
				-1.2029602527618408,
				-0.8212280869483948
			],
			"type":"VEC3"
		},
		{
			"bufferView":28,
			"componentType":5126,
			"count":436,
			"type":"VEC2"
		},
		{
			"bufferView":29,
			"componentType":5126,
			"count":436,
			"type":"VEC3"
		},
		{
			"bufferView":30,
			"componentType":5123,
			"count":2112,
			"type":"SCALAR"
		},
		{
			"bufferView":31,
			"componentType":5126,
			"count":3180,
			"max":[
				0.9498969912528992,
				0.9830780029296875,
				0.949897050857544
			],
			"min":[
				-0.9498968124389648,
				-0.9830889701843262,
				-0.9498968124389648
			],
			"type":"VEC3"
		},
		{
			"bufferView":32,
			"componentType":5126,
			"count":3180,
			"type":"VEC2"
		},
		{
			"bufferView":33,
			"componentType":5126,
			"count":3180,
			"type":"VEC3"
		},
		{
			"bufferView":34,
			"componentType":5123,
			"count":12852,
			"type":"SCALAR"
		},
		{
			"bufferView":35,
			"componentType":5126,
			"count":416,
			"max":[
				0.8937273025512695,
				0.5124251842498779,
				0.9166667461395264
			],
			"min":[
				-0.9545148611068726,
				-1.9820269346237183,
				-1.6152594089508057
			],
			"type":"VEC3"
		},
		{
			"bufferView":36,
			"componentType":5126,
			"count":416,
			"type":"VEC2"
		},
		{
			"bufferView":37,
			"componentType":5126,
			"count":416,
			"type":"VEC3"
		},
		{
			"bufferView":38,
			"componentType":5123,
			"count":1776,
			"type":"SCALAR"
		},
		{
			"bufferView":39,
			"componentType":5126,
			"count":205,
			"max":[
				0.921930193901062,
				0.4074806571006775,
				0.9166666865348816
			],
			"min":[
				-0.9175761938095093,
				-1.679200291633606,
				-0.9166668653488159
			],
			"type":"VEC3"
		},
		{
			"bufferView":40,
			"componentType":5126,
			"count":205,
			"type":"VEC2"
		},
		{
			"bufferView":41,
			"componentType":5126,
			"count":205,
			"type":"VEC3"
		},
		{
			"bufferView":42,
			"componentType":5123,
			"count":960,
			"type":"SCALAR"
		},
		{
			"bufferView":43,
			"componentType":5126,
			"count":205,
			"max":[
				0.921930193901062,
				0.4074806571006775,
				0.9166666865348816
			],
			"min":[
				-0.9175761938095093,
				-1.679200291633606,
				-0.9166668653488159
			],
			"type":"VEC3"
		},
		{
			"bufferView":44,
			"componentType":5126,
			"count":205,
			"type":"VEC2"
		},
		{
			"bufferView":45,
			"componentType":5126,
			"count":205,
			"type":"VEC3"
		},
		{
			"bufferView":46,
			"componentType":5126,
			"count":52,
			"max":[
				2.0724875926971436,
				13.171781539916992,
				4.625194072723389
			],
			"min":[
				-1.9725738763809204,
				-12.19540023803711,
				-0.9921039938926697
			],
			"type":"VEC3"
		},
		{
			"bufferView":47,
			"componentType":5126,
			"count":52,
			"type":"VEC2"
		},
		{
			"bufferView":48,
			"componentType":5126,
			"count":52,
			"type":"VEC3"
		},
		{
			"bufferView":49,
			"componentType":5123,
			"count":144,
			"type":"SCALAR"
		}
	],
	"bufferViews":[
		{
			"buffer":0,
			"byteLength":3420,
			"byteOffset":0,
			"target":34962
		},
		{
			"buffer":0,
			"byteLength":2280,
			"byteOffset":3420,
			"target":34962
		},
		{
			"buffer":0,
			"byteLength":3420,
			"byteOffset":5700,
			"target":34962
		},
		{
			"buffer":0,
			"byteLength":2688,
			"byteOffset":9120,
			"target":34963
		},
		{
			"buffer":0,
			"byteLength":3384,
			"byteOffset":11808,
			"target":34962
		},
		{
			"buffer":0,
			"byteLength":2256,
			"byteOffset":15192,
			"target":34962
		},
		{
			"buffer":0,
			"byteLength":3384,
			"byteOffset":17448,
			"target":34962
		},
		{
			"buffer":0,
			"byteLength":2688,
			"byteOffset":20832,
			"target":34963
		},
		{
			"buffer":0,
			"byteLength":3384,
			"byteOffset":23520,
			"target":34962
		},
		{
			"buffer":0,
			"byteLength":2256,
			"byteOffset":26904,
			"target":34962
		},
		{
			"buffer":0,
			"byteLength":3384,
			"byteOffset":29160,
			"target":34962
		},
		{
			"buffer":0,
			"byteLength":2688,
			"byteOffset":32544,
			"target":34963
		},
		{
			"buffer":0,
			"byteLength":3384,
			"byteOffset":35232,
			"target":34962
		},
		{
			"buffer":0,
			"byteLength":2256,
			"byteOffset":38616,
			"target":34962
		},
		{
			"buffer":0,
			"byteLength":3384,
			"byteOffset":40872,
			"target":34962
		},
		{
			"buffer":0,
			"byteLength":3384,
			"byteOffset":44256,
			"target":34962
		},
		{
			"buffer":0,
			"byteLength":2256,
			"byteOffset":47640,
			"target":34962
		},
		{
			"buffer":0,
			"byteLength":3384,
			"byteOffset":49896,
			"target":34962
		},
		{
			"buffer":0,
			"byteLength":1500,
			"byteOffset":53280,
			"target":34962
		},
		{
			"buffer":0,
			"byteLength":1000,
			"byteOffset":54780,
			"target":34962
		},
		{
			"buffer":0,
			"byteLength":1500,
			"byteOffset":55780,
			"target":34962
		},
		{
			"buffer":0,
			"byteLength":1152,
			"byteOffset":57280,
			"target":34963
		},
		{
			"buffer":0,
			"byteLength":5664,
			"byteOffset":58432,
			"target":34962
		},
		{
			"buffer":0,
			"byteLength":3776,
			"byteOffset":64096,
			"target":34962
		},
		{
			"buffer":0,
			"byteLength":5664,
			"byteOffset":67872,
			"target":34962
		},
		{
			"buffer":0,
			"byteLength":4224,
			"byteOffset":73536,
			"target":34963
		},
		{
			"buffer":0,
			"byteLength":20271,
			"byteOffset":77760
		},
		{
			"buffer":0,
			"byteLength":5232,
			"byteOffset":98032,
			"target":34962
		},
		{
			"buffer":0,
			"byteLength":3488,
			"byteOffset":103264,
			"target":34962
		},
		{
			"buffer":0,
			"byteLength":5232,
			"byteOffset":106752,
			"target":34962
		},
		{
			"buffer":0,
			"byteLength":4224,
			"byteOffset":111984,
			"target":34963
		},
		{
			"buffer":0,
			"byteLength":38160,
			"byteOffset":116208,
			"target":34962
		},
		{
			"buffer":0,
			"byteLength":25440,
			"byteOffset":154368,
			"target":34962
		},
		{
			"buffer":0,
			"byteLength":38160,
			"byteOffset":179808,
			"target":34962
		},
		{
			"buffer":0,
			"byteLength":25704,
			"byteOffset":217968,
			"target":34963
		},
		{
			"buffer":0,
			"byteLength":4992,
			"byteOffset":243672,
			"target":34962
		},
		{
			"buffer":0,
			"byteLength":3328,
			"byteOffset":248664,
			"target":34962
		},
		{
			"buffer":0,
			"byteLength":4992,
			"byteOffset":251992,
			"target":34962
		},
		{
			"buffer":0,
			"byteLength":3552,
			"byteOffset":256984,
			"target":34963
		},
		{
			"buffer":0,
			"byteLength":2460,
			"byteOffset":260536,
			"target":34962
		},
		{
			"buffer":0,
			"byteLength":1640,
			"byteOffset":262996,
			"target":34962
		},
		{
			"buffer":0,
			"byteLength":2460,
			"byteOffset":264636,
			"target":34962
		},
		{
			"buffer":0,
			"byteLength":1920,
			"byteOffset":267096,
			"target":34963
		},
		{
			"buffer":0,
			"byteLength":2460,
			"byteOffset":269016,
			"target":34962
		},
		{
			"buffer":0,
			"byteLength":1640,
			"byteOffset":271476,
			"target":34962
		},
		{
			"buffer":0,
			"byteLength":2460,
			"byteOffset":273116,
			"target":34962
		},
		{
			"buffer":0,
			"byteLength":624,
			"byteOffset":275576,
			"target":34962
		},
		{
			"buffer":0,
			"byteLength":416,
			"byteOffset":276200,
			"target":34962
		},
		{
			"buffer":0,
			"byteLength":624,
			"byteOffset":276616,
			"target":34962
		},
		{
			"buffer":0,
			"byteLength":288,
			"byteOffset":277240,
			"target":34963
		}
	],
	"samplers":[
		{
			"magFilter":9729,
			"minFilter":9987
		}
	],
	"buffers":[
		{
			"byteLength":277528,
			"uri":"data:application/octet-stream;base64,"
		}
	]
}
