{
	"asset":{
		"generator":"Khronos glTF Blender I/O v3.5.30",
		"version":"2.0"
	},
	"scene":0,
	"scenes":[
		{
			"name":"Scene",
			"nodes":[
				0
			]
		}
	],
	"nodes":[
		{
			"mesh":0,
			"name":"model_0",
			"rotation":[
				-0.7082046270370483,
				-0.008385217748582363,
				-0.008412506431341171,
				0.7059073448181152
			],
			"scale":[
				0.021242624148726463,
				0.021242624148726463,
				0.021242624148726463
			],
			"translation":[
				-0.44860193133354187,
				0,
				10.42834186553955
			]
		}
	],
	"materials":[
		{
			"doubleSided":true,
			"name":"Material.001",
			"pbrMetallicRoughness":{
				"baseColorFactor":[
					1,
					1,
					1,
					0.8072726726531982
				],
				"baseColorTexture":{
					"index":0
				},
				"metallicFactor":0,
				"roughnessFactor":0.5
			}
		}
	],
	"meshes":[
		{
			"name":"model_0",
			"primitives":[
				{
					"attributes":{
						"POSITION":0,
						"TEXCOORD_0":1,
						"NORMAL":2
					},
					"indices":3,
					"material":0
				}
			]
		}
	],
	"textures":[
		{
			"sampler":0,
			"source":0
		}
	],
	"images":[
		{
			"bufferView":4,
			"mimeType":"image/jpeg",
			"name":"Jellyfish_emission"
		}
	],
	"accessors":[
		{
			"bufferView":0,
			"componentType":5126,
			"count":37552,
			"max":[
				93.01817321777344,
				653.0245971679688,
				83.73729705810547
			],
			"min":[
				-74.45559692382812,
				353.14300537109375,
				-83.7364730834961
			],
			"type":"VEC3"
		},
		{
			"bufferView":1,
			"componentType":5126,
			"count":37552,
			"type":"VEC2"
		},
		{
			"bufferView":2,
			"componentType":5126,
			"count":37552,
			"type":"VEC3"
		},
		{
			"bufferView":3,
			"componentType":5123,
			"count":41886,
			"type":"SCALAR"
		}
	],
	"bufferViews":[
		{
			"buffer":0,
			"byteLength":450624,
			"byteOffset":0,
			"target":34962
		},
		{
			"buffer":0,
			"byteLength":300416,
			"byteOffset":450624,
			"target":34962
		},
		{
			"buffer":0,
			"byteLength":450624,
			"byteOffset":751040,
			"target":34962
		},
		{
			"buffer":0,
			"byteLength":83772,
			"byteOffset":1201664,
			"target":34963
		},
		{
			"buffer":0,
			"byteLength":721976,
			"byteOffset":1285436
		}
	],
	"samplers":[
		{
			"magFilter":9729,
			"minFilter":9987
		}
	],
	"buffers":[
		{
			"byteLength":2007412,
			"uri":"data:application/octet-stream;base64,"
		}
	]
}
