{
	"asset":{
		"generator":"Khronos glTF Blender I/O v4.0.44",
		"version":"2.0"
	},
	"extensionsUsed":[
		"KHR_lights_punctual"
	],
	"extensionsRequired":[
		"KHR_lights_punctual"
	],
	"extensions":{
		"KHR_lights_punctual":{
			"lights":[
				{
					"color":[
						1,
						1,
						1
					],
					"intensity":8217.933489694049,
					"type":"point",
					"name":"Point"
				}
			]
		}
	},
	"scene":0,
	"scenes":[
		{
			"name":"Scene",
			"nodes":[
				0,
				1
			]
		}
	],
	"nodes":[
		{
			"mesh":0,
			"name":"rolls",
			"scale":[
				10.555983543395996,
				10.555983543395996,
				10.555983543395996
			],
			"translation":[
				-25.855209350585938,
				11.640464782714844,
				-13.253170013427734
			]
		},
		{
			"extensions":{
				"KHR_lights_punctual":{
					"light":0
				}
			},
			"name":"Point",
			"rotation":[
				-0.7071067690849304,
				0,
				0,
				0.7071068286895752
			],
			"scale":[
				241.559326171875,
				241.55931091308594,
				241.55931091308594
			],
			"translation":[
				-70.883056640625,
				107.58307647705078,
				-0.3739776611328125
			]
		}
	],
	"materials":[
		{
			"doubleSided":true,
			"name":"rice",
			"pbrMetallicRoughness":{
				"baseColorFactor":[
					0.800000011920929,
					0.800000011920929,
					0.800000011920929,
					1
				],
				"metallicFactor":0,
				"roughnessFactor":0.5
			}
		},
		{
			"doubleSided":true,
			"name":"green",
			"pbrMetallicRoughness":{
				"baseColorFactor":[
					0.012416793033480644,
					0.13286367058753967,
					0.0011239347513765097,
					1
				],
				"metallicFactor":0,
				"roughnessFactor":0.5
			}
		},
		{
			"doubleSided":true,
			"name":"fish",
			"pbrMetallicRoughness":{
				"baseColorFactor":[
					0.9550900459289551,
					0.1713421791791916,
					0.015442402102053165,
					1
				],
				"metallicFactor":0,
				"roughnessFactor":0.5
			}
		},
		{
			"doubleSided":true,
			"name":"green filling",
			"pbrMetallicRoughness":{
				"baseColorFactor":[
					0.0821850374341011,
					0.3931148648262024,
					0.0006627104594372213,
					1
				],
				"metallicFactor":0,
				"roughnessFactor":0.5
			}
		},
		{
			"doubleSided":true,
			"name":"plate",
			"pbrMetallicRoughness":{
				"baseColorFactor":[
					0.00489562563598156,
					0.00489562563598156,
					0.00489562563598156,
					1
				],
				"metallicFactor":0,
				"roughnessFactor":0.5
			}
		},
		{
			"doubleSided":true,
			"name":"sticks",
			"pbrMetallicRoughness":{
				"baseColorFactor":[
					0.8000000715255737,
					0.3399905860424042,
					0.037082307040691376,
					1
				],
				"metallicFactor":0,
				"roughnessFactor":0.5
			}
		}
	],
	"meshes":[
		{
			"name":"Cube.001",
			"primitives":[
				{
					"attributes":{
						"POSITION":0,
						"NORMAL":1,
						"TEXCOORD_0":2
					},
					"indices":3,
					"material":0
				},
				{
					"attributes":{
						"POSITION":4,
						"NORMAL":5,
						"TEXCOORD_0":6
					},
					"indices":7,
					"material":1
				},
				{
					"attributes":{
						"POSITION":8,
						"NORMAL":9,
						"TEXCOORD_0":10
					},
					"indices":11,
					"material":2
				},
				{
					"attributes":{
						"POSITION":12,
						"NORMAL":13,
						"TEXCOORD_0":14
					},
					"indices":15,
					"material":3
				},
				{
					"attributes":{
						"POSITION":16,
						"NORMAL":17,
						"TEXCOORD_0":18
					},
					"indices":19,
					"material":4
				},
				{
					"attributes":{
						"POSITION":20,
						"NORMAL":21,
						"TEXCOORD_0":22
					},
					"indices":23,
					"material":5
				}
			]
		}
	],
	"accessors":[
		{
			"bufferView":0,
			"componentType":5126,
			"count":240,
			"max":[
				5.723084926605225,
				0.46601516008377075,
				3.3230843544006348
			],
			"min":[
				-0.923084557056427,
				0.38386303186416626,
				-0.923084557056427
			],
			"type":"VEC3"
		},
		{
			"bufferView":1,
			"componentType":5126,
			"count":240,
			"type":"VEC3"
		},
		{
			"bufferView":2,
			"componentType":5126,
			"count":240,
			"type":"VEC2"
		},
		{
			"bufferView":3,
			"componentType":5123,
			"count":576,
			"type":"SCALAR"
		},
		{
			"bufferView":4,
			"componentType":5126,
			"count":438,
			"max":[
				5.800000190734863,
				0.5319048762321472,
				3.3999998569488525
			],
			"min":[
				-1,
				-1,
				-1
			],
			"type":"VEC3"
		},
		{
			"bufferView":5,
			"componentType":5126,
			"count":438,
			"type":"VEC3"
		},
		{
			"bufferView":6,
			"componentType":5126,
			"count":438,
			"type":"VEC2"
		},
		{
			"bufferView":7,
			"componentType":5123,
			"count":1008,
			"type":"SCALAR"
		},
		{
			"bufferView":8,
			"componentType":5126,
			"count":156,
			"max":[
				5.341279029846191,
				0.426686555147171,
				2.9412789344787598
			],
			"min":[
				-0.5412790775299072,
				0.38386303186416626,
				-0.5412790775299072
			],
			"type":"VEC3"
		},
		{
			"bufferView":9,
			"componentType":5126,
			"count":156,
			"type":"VEC3"
		},
		{
			"bufferView":10,
			"componentType":5126,
			"count":156,
			"type":"VEC2"
		},
		{
			"bufferView":11,
			"componentType":5123,
			"count":252,
			"type":"SCALAR"
		},
		{
			"bufferView":12,
			"componentType":5126,
			"count":24,
			"max":[
				4.800000190734863,
				0.38386303186416626,
				2.9412789344787598
			],
			"min":[
				-0.5412790775299072,
				0.38386303186416626,
				0
			],
			"type":"VEC3"
		},
		{
			"bufferView":13,
			"componentType":5126,
			"count":24,
			"type":"VEC3"
		},
		{
			"bufferView":14,
			"componentType":5126,
			"count":24,
			"type":"VEC2"
		},
		{
			"bufferView":15,
			"componentType":5123,
			"count":36,
			"type":"SCALAR"
		},
		{
			"bufferView":16,
			"componentType":5126,
			"count":54,
			"max":[
				6.944530487060547,
				-0.7274158596992493,
				4.85626220703125
			],
			"min":[
				-2.208926200866699,
				-1.0023175477981567,
				-2.416093111038208
			],
			"type":"VEC3"
		},
		{
			"bufferView":17,
			"componentType":5126,
			"count":54,
			"type":"VEC3"
		},
		{
			"bufferView":18,
			"componentType":5126,
			"count":54,
			"type":"VEC2"
		},
		{
			"bufferView":19,
			"componentType":5123,
			"count":102,
			"type":"SCALAR"
		},
		{
			"bufferView":20,
			"componentType":5126,
			"count":48,
			"max":[
				5.8024797439575195,
				-0.5388658046722412,
				4.597762107849121
			],
			"min":[
				-1.0048234462738037,
				-0.7263708114624023,
				4.05399751663208
			],
			"type":"VEC3"
		},
		{
			"bufferView":21,
			"componentType":5126,
			"count":48,
			"type":"VEC3"
		},
		{
			"bufferView":22,
			"componentType":5126,
			"count":48,
			"type":"VEC2"
		},
		{
			"bufferView":23,
			"componentType":5123,
			"count":72,
			"type":"SCALAR"
		}
	],
	"bufferViews":[
		{
			"buffer":0,
			"byteLength":2880,
			"byteOffset":0,
			"target":34962
		},
		{
			"buffer":0,
			"byteLength":2880,
			"byteOffset":2880,
			"target":34962
		},
		{
			"buffer":0,
			"byteLength":1920,
			"byteOffset":5760,
			"target":34962
		},
		{
			"buffer":0,
			"byteLength":1152,
			"byteOffset":7680,
			"target":34963
		},
		{
			"buffer":0,
			"byteLength":5256,
			"byteOffset":8832,
			"target":34962
		},
		{
			"buffer":0,
			"byteLength":5256,
			"byteOffset":14088,
			"target":34962
		},
		{
			"buffer":0,
			"byteLength":3504,
			"byteOffset":19344,
			"target":34962
		},
		{
			"buffer":0,
			"byteLength":2016,
			"byteOffset":22848,
			"target":34963
		},
		{
			"buffer":0,
			"byteLength":1872,
			"byteOffset":24864,
			"target":34962
		},
		{
			"buffer":0,
			"byteLength":1872,
			"byteOffset":26736,
			"target":34962
		},
		{
			"buffer":0,
			"byteLength":1248,
			"byteOffset":28608,
			"target":34962
		},
		{
			"buffer":0,
			"byteLength":504,
			"byteOffset":29856,
			"target":34963
		},
		{
			"buffer":0,
			"byteLength":288,
			"byteOffset":30360,
			"target":34962
		},
		{
			"buffer":0,
			"byteLength":288,
			"byteOffset":30648,
			"target":34962
		},
		{
			"buffer":0,
			"byteLength":192,
			"byteOffset":30936,
			"target":34962
		},
		{
			"buffer":0,
			"byteLength":72,
			"byteOffset":31128,
			"target":34963
		},
		{
			"buffer":0,
			"byteLength":648,
			"byteOffset":31200,
			"target":34962
		},
		{
			"buffer":0,
			"byteLength":648,
			"byteOffset":31848,
			"target":34962
		},
		{
			"buffer":0,
			"byteLength":432,
			"byteOffset":32496,
			"target":34962
		},
		{
			"buffer":0,
			"byteLength":204,
			"byteOffset":32928,
			"target":34963
		},
		{
			"buffer":0,
			"byteLength":576,
			"byteOffset":33132,
			"target":34962
		},
		{
			"buffer":0,
			"byteLength":576,
			"byteOffset":33708,
			"target":34962
		},
		{
			"buffer":0,
			"byteLength":384,
			"byteOffset":34284,
			"target":34962
		},
		{
			"buffer":0,
			"byteLength":144,
			"byteOffset":34668,
			"target":34963
		}
	],
	"buffers":[
		{
			"byteLength":34812,
			"uri":"sushirolls.bin"
		}
	]
}
